<svg class="logo" xmlns="http://www.w3.org/2000/svg" viewBox="0 0 732.8 475.09"><path d="M694.07,579c51.37-13.9,117.35-23.83,200.06-34.5,17.77-2.3,16.66-25.33-.35-25.77-247.71-6.46-426.56-5.06-701,6.15-20.95.85-25.22,30.33-7.53,33.34,230.48,39.29,390.22,78.62,571.55,150.58,13.84,5.5,27.86-12.31,17.49-29-82.52-132.73-75-288.52-90.06-354.08-1.55-6.74-4.54-13.33-9.93-17.66-6.9-5.54-16-5.16-24.45,1.24a27,27,0,0,0-7.64,9.26C614.56,372.74,600,551.75,569.4,669.71a.76.76,0,0,1-1.3.31c-61.23-69.74-50-292.19-66.9-353.31-2.06-7.44-8.16-13.36-15.82-14.31-6.39-.79-13.37.49-18.63,8C419.51,378,376.65,597.21,291,762.65c-7.45,14.38,9.63,19.69,17.73,9,64.46-85.29,128.8-325.22,169.84-429.76a.92.92,0,0,1,1.77.21c9.48,61.88,8.31,271.46,67.44,338.86,21.15,24.11,36.93,7.58,42.15-4,7.66-17,14.46-46,20.7-76.56,14.08-69.11,29.78-166.16,48.48-245.78a.6.6,0,0,1,1.17.06c14.69,94.71,10.42,199.49,85.59,326.08a1.86,1.86,0,0,1-2.32,2.72c-131.81-59.55-289.47-94.2-442.38-130.3a.84.84,0,0,1,.23-1.65c191.5-6.9,318.92-6.43,498.55-11.43a.53.53,0,0,1,.1,1.06c-42.88,8.68-57,11.55-109.33,25.61C684.61,568.36,682.83,582.05,694.07,579Z" transform="translate(-174.2 -302.2)"></path></svg>